# Blender v2.69 (sub 0) OBJ File: ''
# www.blender.org
o Mesh1_Model
v 15.868400 20.873621 -124.949997
v -0.000233 20.873579 124.949997
v 124.949997 20.873621 -124.949997
v 15.868400 20.124420 -124.949997
v -0.000233 20.124378 124.949997
v -0.000244 -20.873878 -124.949997
v -15.868900 20.124420 -124.949997
v -15.868900 20.873621 -124.949997
v -124.949997 20.873621 -124.949997
v -124.949997 20.124420 -124.949997
v 124.949997 20.124420 -124.949997
vt 0.628978 0.967240
vt 0.521162 0.012729
vt 0.944094 0.897144
vt 0.617899 0.980594
vt 0.507001 0.014912
vt 0.475162 0.999902
vt 0.334094 0.967577
vt 0.324606 0.955606
vt 0.488833 0.010112
vt 0.018013 0.837150
vt 0.000098 0.840447
vt 0.476582 0.000098
vt 0.540458 0.000098
vt 0.960549 0.901122
vn 0.000000 1.000000 0.000000
vn -0.997990 0.000000 -0.063372
vn -0.997990 0.000000 -0.063373
vn 0.930950 -0.360330 0.059115
vn -0.930950 -0.360330 0.059115
vn 0.997990 0.000000 -0.063373
vn 0.997990 0.000000 -0.063372
vn -0.894429 0.000000 0.447210
vn -0.894427 0.000000 0.447214
vn 0.894427 0.000000 0.447214
vn 0.000000 0.000000 -1.000000
s off
f 1/1/1 2/2/1 3/3/1
f 2/2/2 1/1/2 4/4/2
f 2/2/3 4/4/3 5/5/3
f 5/5/4 6/6/4 4/4/4
f 7/7/5 6/6/5 5/5/5
f 8/8/6 5/5/6 7/7/6
f 5/5/7 8/8/7 2/9/7
f 9/10/1 2/9/1 8/8/1
f 10/11/8 2/9/8 9/10/8
f 2/9/9 10/11/9 5/12/9
f 5/13/10 3/3/10 2/2/10
f 3/3/10 5/13/10 11/14/10
f 4/4/11 3/3/11 11/14/11
f 4/4/11 1/1/11 3/3/11
f 8/8/11 10/11/11 9/10/11
f 10/11/11 8/8/11 7/7/11
